<?xml version="1.0" encoding="UTF-8"?><svg version="1.1" viewBox="0 0 24 24" xmlns="http://www.w3.org/2000/svg" xmlns:xlink="http://www.w3.org/1999/xlink"><!--Generated by IJSVG (https://github.com/iconjar/IJSVG)--><defs><mask id="a" maskContentUnits="userSpaceOnUse" maskUnits="objectBoundingBox"><path fill="#FFF" d="M24,24h-24v-24h24v24Z"></path></mask></defs><path mask="url(#a)" d="M3,4v-3h2v3h3v2h-3v3h-2v-3h-3v-2h3Zm3,6v-3h3v-3h7l1.83,2h3.17c1.1,0 2,0.9 2,2v12c0,1.1 -0.9,2 -2,2h-16c-1.1,0 -2,-0.9 -2,-2v-10h3Zm7,9c2.76,0 5,-2.24 5,-5c0,-2.76 -2.24,-5 -5,-5c-2.76,0 -5,2.24 -5,5c0,2.76 2.24,5 5,5Zm-3.2,-5c0,1.77 1.43,3.2 3.2,3.2c1.77,0 3.2,-1.43 3.2,-3.2c0,-1.77 -1.43,-3.2 -3.2,-3.2c-1.77,0 -3.2,1.43 -3.2,3.2Z" fill="#000"></path></svg>