<svg id="ic-exit-to-app-24px" xmlns="http://www.w3.org/2000/svg" width="49.52" height="49.52" viewBox="0 0 49.52 49.52">
  <path id="Path_133" data-name="Path 133" d="M49.52,0H0V49.52H49.52Z" fill="none"/>
  <path id="Path_134" data-name="Path 134" d="M25.511,28.977,22.6,31.887,12.285,21.57,22.6,11.253l2.909,2.909-5.323,5.344H40.14v4.127H20.188ZM7.127,3H36.013A4.126,4.126,0,0,1,40.14,7.127V15.38H36.013V7.127H7.127V36.013H36.013V27.76H40.14v8.253a4.126,4.126,0,0,1-4.127,4.127H7.127A4.139,4.139,0,0,1,3,36.013V7.127A4.139,4.139,0,0,1,7.127,3Z" transform="translate(3.19 3.19)" fill="#ff1f75"/>
</svg>
