<svg id="ab97828d-03b1-4255-b9be-94c4d464a60c" data-name="Layer 1" xmlns="http://www.w3.org/2000/svg" xmlns:xlink="http://www.w3.org/1999/xlink" viewBox="0 0 18.83 20.7">
  <defs>
    <clipPath id="b57e5f0a-844a-40f8-965c-1583ba735460">
      <path d="M5.26.33a7.61,7.61,0,0,0-1-.08A4,4,0,0,0,1.23,1.59,4.12,4.12,0,0,0,.36,3.18,4,4,0,0,0,.21,4.29V16.41a4,4,0,0,0,.15,1.11,4.08,4.08,0,0,0,.87,1.58.08.08,0,0,0,0,0,2,2,0,0,0,.25.26,4,4,0,0,0,2.09,1l.17,0a2.92,2.92,0,0,0,.51,0,3.34,3.34,0,0,0,1-.09V.33Z" fill="none"/>
    </clipPath></defs>
  <path d="M18.62,10.38c0,1-10.24,10.39-14.33,10.11a2.92,2.92,0,0,1-.51,0l-.17,0a4,4,0,0,1-2.09-1,1.48,1.48,0,0,1-.25-.25.08.08,0,0,1,0,0,4,4,0,0,1-1-2.69V4.29A4,4,0,0,1,.36,3.18a4.12,4.12,0,0,1,.87-1.59A4.08,4.08,0,0,1,4.29.21a8.27,8.27,0,0,1,1,.12C7.83.64,18.62,9.47,18.62,10.38Z" fill="#f2f2f2" stroke="#000" stroke-miterlimit="10" stroke-width="0.41"/>
  <path d="M5.29.33a8.27,8.27,0,0,0-1-.12A4.08,4.08,0,0,0,1.23,1.59,4.12,4.12,0,0,0,.36,3.18,4,4,0,0,0,.21,4.29V16.41a4,4,0,0,0,.15,1.11,4.08,4.08,0,0,0,.87,1.58.08.08,0,0,0,0,0,1.48,1.48,0,0,0,.25.25,4,4,0,0,0,2.09,1l.17,0a2.92,2.92,0,0,0,.51,0,3.34,3.34,0,0,0,1-.09L5.29.33" fill="#f2f2f2" stroke="#000" stroke-miterlimit="10" stroke-width="0.41"/>
  <g clip-path="url(#b57e5f0a-844a-40f8-965c-1583ba735460)"><line x1="-32.21" y1="9.32" x2="8.28" y2="-7.42" fill="none" stroke="#000" stroke-miterlimit="10" stroke-width="0.12"/>
    <line x1="-32.21" y1="9.32" x2="8.33" y2="-5.58" fill="none" stroke="#000" stroke-miterlimit="10" stroke-width="0.14"/>
    <line x1="-32.21" y1="9.32" x2="8.39" y2="-3.74" fill="none" stroke="#000" stroke-miterlimit="10" stroke-width="0.15"/>
    <line x1="-32.21" y1="9.32" x2="8.45" y2="-1.9" fill="none" stroke="#000" stroke-miterlimit="10" stroke-width="0.17"/>
    <line x1="-32.21" y1="9.32" x2="8.5" y2="-0.06" fill="none" stroke="#000" stroke-miterlimit="10" stroke-width="0.18"/><line x1="-32.21" y1="9.32" x2="8.56" y2="1.78" fill="none" stroke="#000" stroke-miterlimit="10" stroke-width="0.2"/><line x1="-32.21" y1="9.32" x2="8.62" y2="3.62" fill="none" stroke="#000" stroke-miterlimit="10" stroke-width="0.21"/><line x1="-32.21" y1="9.32" x2="8.67" y2="5.46" fill="none" stroke="#000" stroke-miterlimit="10" stroke-width="0.23"/><line x1="-32.21" y1="9.32" x2="8.73" y2="7.3" fill="none" stroke="#000" stroke-miterlimit="10" stroke-width="0.24"/><line x1="-32.21" y1="9.32" x2="8.79" y2="9.13" fill="none" stroke="#000" stroke-miterlimit="10" stroke-width="0.25"/><line x1="-32.21" y1="9.32" x2="8.85" y2="10.97" fill="none" stroke="#000" stroke-miterlimit="10" stroke-width="0.27"/><line x1="-32.21" y1="9.32" x2="8.9" y2="12.81" fill="none" stroke="#000" stroke-miterlimit="10" stroke-width="0.28"/><line x1="-32.21" y1="9.32" x2="8.96" y2="14.65" fill="none" stroke="#000" stroke-miterlimit="10" stroke-width="0.3"/><line x1="-32.21" y1="9.32" x2="9.02" y2="16.49" fill="none" stroke="#000" stroke-miterlimit="10" stroke-width="0.31"/><line x1="-32.21" y1="9.32" x2="9.07" y2="18.33" fill="none" stroke="#000" stroke-miterlimit="10" stroke-width="0.33"/><line x1="-32.21" y1="9.32" x2="9.13" y2="20.17" fill="none" stroke="#000" stroke-miterlimit="10" stroke-width="0.34"/><line x1="-32.21" y1="9.32" x2="9.19" y2="22.01" fill="none" stroke="#000" stroke-miterlimit="10" stroke-width="0.36"/><line x1="-32.21" y1="9.32" x2="9.24" y2="23.85" fill="none" stroke="#000" stroke-miterlimit="10" stroke-width="0.37"/><line x1="-32.21" y1="9.32" x2="9.3" y2="25.69" fill="none" stroke="#000" stroke-miterlimit="10" stroke-width="0.38"/><line x1="-32.21" y1="9.32" x2="9.36" y2="27.53" fill="none" stroke="#000" stroke-miterlimit="10" stroke-width="0.4"/><line x1="-32.21" y1="9.32" x2="9.41" y2="29.37" fill="none" stroke="#000" stroke-miterlimit="10" stroke-width="0.41"/></g>
</svg>
