<svg id="e2a79983-713f-43df-b18a-a2a5b5420538" data-name="Layer 1" xmlns="http://www.w3.org/2000/svg" xmlns:xlink="http://www.w3.org/1999/xlink" viewBox="0 0 1265.31 858.88"><defs><clipPath id="afda76ce-f4d1-4ad0-868f-18ea8f746008"><rect x="-1571.65" y="-1186.03" width="1440.69" height="977.92" fill="none"/></clipPath><linearGradient id="b07c6f0a-654f-41e9-91bd-44d41eef7d42" x1="637.63" y1="618.42" x2="684.21" y2="618.42" gradientUnits="userSpaceOnUse"><stop offset="0" stop-color="#0000db"/><stop offset="0.11" stop-color="#0000ea"/><stop offset="0.27" stop-color="#0000f6"/><stop offset="0.48" stop-color="#0000fd"/><stop offset="1" stop-color="blue"/></linearGradient><linearGradient id="ad7e31e4-8610-4cb7-bc50-2e8a446dfb95" x1="637.63" y1="622.81" x2="684.21" y2="622.81" xlink:href="#b07c6f0a-654f-41e9-91bd-44d41eef7d42"/><linearGradient id="b569c65e-76be-4dc0-b83b-be5caf20b972" x1="637.63" y1="627.19" x2="684.21" y2="627.19" xlink:href="#b07c6f0a-654f-41e9-91bd-44d41eef7d42"/><linearGradient id="afe70572-d5e0-4f4f-8c6b-205440aeee58" x1="637.63" y1="631.58" x2="684.21" y2="631.58" xlink:href="#b07c6f0a-654f-41e9-91bd-44d41eef7d42"/><linearGradient id="bbe575d9-bb70-4fb5-a477-8ed619f9028d" x1="637.63" y1="635.97" x2="684.21" y2="635.97" xlink:href="#b07c6f0a-654f-41e9-91bd-44d41eef7d42"/><linearGradient id="a6ac6fad-d266-4e31-8b2c-c524c8c521fc" x1="637.63" y1="640.35" x2="684.21" y2="640.35" xlink:href="#b07c6f0a-654f-41e9-91bd-44d41eef7d42"/><linearGradient id="bf5b694d-e68a-4d0e-9020-95c8e4055ea5" x1="637.63" y1="644.74" x2="684.21" y2="644.74" xlink:href="#b07c6f0a-654f-41e9-91bd-44d41eef7d42"/><linearGradient id="e1763103-6948-4585-831a-32725913b2df" x1="637.63" y1="649.12" x2="684.21" y2="649.12" xlink:href="#b07c6f0a-654f-41e9-91bd-44d41eef7d42"/><linearGradient id="f818cd3b-1dda-4923-a287-baa05cc0e047" x1="637.63" y1="653.51" x2="684.21" y2="653.51" xlink:href="#b07c6f0a-654f-41e9-91bd-44d41eef7d42"/><linearGradient id="e0ba91ee-6914-4917-8f70-d363c705915e" x1="637.63" y1="657.9" x2="684.21" y2="657.9" xlink:href="#b07c6f0a-654f-41e9-91bd-44d41eef7d42"/><linearGradient id="a15621d1-6803-4aff-881b-8d37af8fe4c6" x1="637.63" y1="662.28" x2="684.21" y2="662.28" xlink:href="#b07c6f0a-654f-41e9-91bd-44d41eef7d42"/><linearGradient id="bb673834-d99e-482b-8a82-1d73bc781406" x1="637.63" y1="666.67" x2="684.21" y2="666.67" xlink:href="#b07c6f0a-654f-41e9-91bd-44d41eef7d42"/><linearGradient id="b7ca212f-0d8e-4a18-a63b-b51fbe0940b4" x1="637.63" y1="671.05" x2="684.21" y2="671.05" xlink:href="#b07c6f0a-654f-41e9-91bd-44d41eef7d42"/></defs><title>kmf-loader</title><g clip-path="url(#afda76ce-f4d1-4ad0-868f-18ea8f746008)"><rect x="-1432.72" y="-639.75" width="1737.5" height="130.54" transform="translate(241.03 -567.05) rotate(-45)" fill="blue" opacity="0"/></g><line x1="1818.73" y1="164.8" x2="959.33" y2="-333.65" fill="none"/><polygon points="638.13 315.79 638.13 368.42 683.71 342.11 683.71 289.47 638.13 315.79" fill="blue" stroke="blue" stroke-linejoin="round"/><polygon points="592.54 289.47 592.54 342.11 638.13 368.42 638.13 315.79 592.54 289.47" fill="blue" stroke="blue" stroke-linecap="square" stroke-linejoin="round"/><line x1="592.55" y1="289.47" x2="638.13" y2="263.16" fill="none" stroke="blue" stroke-linecap="round" stroke-miterlimit="10"/><line x1="596.05" y1="291.5" x2="641.63" y2="265.18" fill="none" stroke="blue" stroke-linecap="round" stroke-miterlimit="10"/><line x1="599.56" y1="293.52" x2="645.14" y2="267.21" fill="none" stroke="blue" stroke-linecap="round" stroke-miterlimit="10"/><line x1="603.06" y1="295.55" x2="648.64" y2="269.23" fill="none" stroke="blue" stroke-linecap="round" stroke-miterlimit="10"/><line x1="606.57" y1="297.57" x2="652.15" y2="271.26" fill="none" stroke="blue" stroke-linecap="round" stroke-miterlimit="10"/><line x1="610.08" y1="299.6" x2="655.66" y2="273.28" fill="none" stroke="blue" stroke-linecap="round" stroke-miterlimit="10"/><line x1="613.58" y1="301.62" x2="659.16" y2="275.3" fill="none" stroke="blue" stroke-linecap="round" stroke-miterlimit="10"/><line x1="617.09" y1="303.64" x2="662.67" y2="277.33" fill="none" stroke="blue" stroke-linecap="round" stroke-miterlimit="10"/><line x1="620.59" y1="305.67" x2="666.18" y2="279.35" fill="none" stroke="blue" stroke-linecap="round" stroke-miterlimit="10"/><line x1="624.1" y1="307.69" x2="669.68" y2="281.38" fill="none" stroke="blue" stroke-linecap="round" stroke-miterlimit="10"/><line x1="627.61" y1="309.72" x2="673.19" y2="283.4" fill="none" stroke="blue" stroke-linecap="round" stroke-miterlimit="10"/><line x1="631.11" y1="311.74" x2="676.69" y2="285.43" fill="none" stroke="blue" stroke-linecap="round" stroke-miterlimit="10"/><line x1="634.62" y1="313.76" x2="680.2" y2="287.45" fill="none" stroke="blue" stroke-linecap="round" stroke-miterlimit="10"/><line x1="638.13" y1="315.79" x2="683.71" y2="289.47" fill="none" stroke="blue" stroke-linecap="round" stroke-miterlimit="10"/><polygon points="638.13 473.69 638.13 526.32 683.71 500 683.71 447.37 638.13 473.69" fill="blue" stroke="blue" stroke-linejoin="round"/><line x1="592.55" y1="447.37" x2="592.55" y2="500" fill="none" stroke="#0000db" stroke-linecap="round" stroke-linejoin="round"/><line x1="596.05" y1="449.39" x2="596.05" y2="502.02" fill="none" stroke="#0000db" stroke-linecap="round" stroke-linejoin="round"/><line x1="599.56" y1="451.41" x2="599.56" y2="504.05" fill="none" stroke="#0000db" stroke-linecap="round" stroke-linejoin="round"/><line x1="603.06" y1="453.44" x2="603.06" y2="506.07" fill="none" stroke="#0000db" stroke-linecap="round" stroke-linejoin="round"/><line x1="606.57" y1="455.46" x2="606.57" y2="508.1" fill="none" stroke="#0000db" stroke-linecap="round" stroke-linejoin="round"/><line x1="610.08" y1="457.49" x2="610.08" y2="510.12" fill="none" stroke="#0000db" stroke-linecap="round" stroke-linejoin="round"/><line x1="613.58" y1="459.51" x2="613.58" y2="512.15" fill="none" stroke="#0000db" stroke-linecap="round" stroke-linejoin="round"/><line x1="617.09" y1="461.54" x2="617.09" y2="514.17" fill="none" stroke="#0000db" stroke-linecap="round" stroke-linejoin="round"/><line x1="620.59" y1="463.56" x2="620.59" y2="516.2" fill="none" stroke="#0000db" stroke-linecap="round" stroke-linejoin="round"/><line x1="624.1" y1="465.59" x2="624.1" y2="518.22" fill="none" stroke="#0000db" stroke-linecap="round" stroke-linejoin="round"/><line x1="627.61" y1="467.61" x2="627.61" y2="520.24" fill="none" stroke="#0000db" stroke-linecap="round" stroke-linejoin="round"/><line x1="631.11" y1="469.63" x2="631.11" y2="522.27" fill="none" stroke="#0000db" stroke-linecap="round" stroke-linejoin="round"/><line x1="634.62" y1="471.66" x2="634.62" y2="524.29" fill="none" stroke="#0000db" stroke-linecap="round" stroke-linejoin="round"/><line x1="638.13" y1="473.68" x2="638.13" y2="526.32" fill="none" stroke="#0000db" stroke-linecap="round" stroke-linejoin="round"/><line x1="592.55" y1="447.37" x2="638.13" y2="421.05" fill="none" stroke="blue" stroke-linecap="round" stroke-miterlimit="10"/><line x1="596.05" y1="449.39" x2="641.63" y2="423.08" fill="none" stroke="blue" stroke-linecap="round" stroke-miterlimit="10"/><line x1="599.56" y1="451.42" x2="645.14" y2="425.1" fill="none" stroke="blue" stroke-linecap="round" stroke-miterlimit="10"/><line x1="603.06" y1="453.44" x2="648.64" y2="427.13" fill="none" stroke="blue" stroke-linecap="round" stroke-miterlimit="10"/><line x1="606.57" y1="455.47" x2="652.15" y2="429.15" fill="none" stroke="blue" stroke-linecap="round" stroke-miterlimit="10"/><line x1="610.08" y1="457.49" x2="655.66" y2="431.17" fill="none" stroke="blue" stroke-linecap="round" stroke-miterlimit="10"/><line x1="613.58" y1="459.51" x2="659.16" y2="433.2" fill="none" stroke="blue" stroke-linecap="round" stroke-miterlimit="10"/><line x1="617.09" y1="461.54" x2="662.67" y2="435.22" fill="none" stroke="blue" stroke-linecap="round" stroke-miterlimit="10"/><line x1="620.59" y1="463.56" x2="666.18" y2="437.25" fill="none" stroke="blue" stroke-linecap="round" stroke-miterlimit="10"/><line x1="624.1" y1="465.59" x2="669.68" y2="439.27" fill="none" stroke="blue" stroke-linecap="round" stroke-miterlimit="10"/><line x1="627.61" y1="467.61" x2="673.19" y2="441.3" fill="none" stroke="blue" stroke-linecap="round" stroke-miterlimit="10"/><line x1="631.11" y1="469.63" x2="676.69" y2="443.32" fill="none" stroke="blue" stroke-linecap="round" stroke-miterlimit="10"/><line x1="634.62" y1="471.66" x2="680.2" y2="445.34" fill="none" stroke="blue" stroke-linecap="round" stroke-miterlimit="10"/><line x1="638.13" y1="473.68" x2="683.71" y2="447.37" fill="none" stroke="blue" stroke-linecap="round" stroke-miterlimit="10"/><line x1="592.55" y1="605.26" x2="592.55" y2="657.9" fill="none" stroke="#0000db" stroke-linecap="round" stroke-linejoin="round"/><line x1="596.05" y1="607.29" x2="596.05" y2="659.92" fill="none" stroke="#0000db" stroke-linecap="round" stroke-linejoin="round"/><line x1="599.56" y1="609.31" x2="599.56" y2="661.94" fill="none" stroke="#0000db" stroke-linecap="round" stroke-linejoin="round"/><line x1="603.06" y1="611.33" x2="603.06" y2="663.97" fill="none" stroke="#0000db" stroke-linecap="round" stroke-linejoin="round"/><line x1="606.57" y1="613.36" x2="606.57" y2="665.99" fill="none" stroke="#0000db" stroke-linecap="round" stroke-linejoin="round"/><line x1="610.08" y1="615.38" x2="610.08" y2="668.02" fill="none" stroke="#0000db" stroke-linecap="round" stroke-linejoin="round"/><line x1="613.58" y1="617.41" x2="613.58" y2="670.04" fill="none" stroke="#0000db" stroke-linecap="round" stroke-linejoin="round"/><line x1="617.09" y1="619.43" x2="617.09" y2="672.07" fill="none" stroke="#0000db" stroke-linecap="round" stroke-linejoin="round"/><line x1="620.59" y1="621.46" x2="620.59" y2="674.09" fill="none" stroke="#0000db" stroke-linecap="round" stroke-linejoin="round"/><line x1="624.1" y1="623.48" x2="624.1" y2="676.12" fill="none" stroke="#0000db" stroke-linecap="round" stroke-linejoin="round"/><line x1="627.61" y1="625.51" x2="627.61" y2="678.14" fill="none" stroke="#0000db" stroke-linecap="round" stroke-linejoin="round"/><line x1="631.11" y1="627.53" x2="631.11" y2="680.16" fill="none" stroke="#0000db" stroke-linecap="round" stroke-linejoin="round"/><line x1="634.62" y1="629.55" x2="634.62" y2="682.19" fill="none" stroke="#0000db" stroke-linecap="round" stroke-linejoin="round"/><line x1="638.13" y1="631.58" x2="638.13" y2="684.21" fill="none" stroke="#0000db" stroke-linecap="round" stroke-linejoin="round"/><line x1="592.55" y1="605.26" x2="638.13" y2="578.95" fill="none" stroke="blue" stroke-linecap="round" stroke-miterlimit="10"/><line x1="596.05" y1="607.29" x2="641.63" y2="580.97" fill="none" stroke="blue" stroke-linecap="round" stroke-miterlimit="10"/><line x1="599.56" y1="609.31" x2="645.14" y2="583" fill="none" stroke="blue" stroke-linecap="round" stroke-miterlimit="10"/><line x1="603.06" y1="611.34" x2="648.64" y2="585.02" fill="none" stroke="blue" stroke-linecap="round" stroke-miterlimit="10"/><line x1="606.57" y1="613.36" x2="652.15" y2="587.05" fill="none" stroke="blue" stroke-linecap="round" stroke-miterlimit="10"/><line x1="610.08" y1="615.38" x2="655.66" y2="589.07" fill="none" stroke="blue" stroke-linecap="round" stroke-miterlimit="10"/><line x1="613.58" y1="617.41" x2="659.16" y2="591.09" fill="none" stroke="blue" stroke-linecap="round" stroke-miterlimit="10"/><line x1="617.09" y1="619.43" x2="662.67" y2="593.12" fill="none" stroke="blue" stroke-linecap="round" stroke-miterlimit="10"/><line x1="620.59" y1="621.46" x2="666.18" y2="595.14" fill="none" stroke="blue" stroke-linecap="round" stroke-miterlimit="10"/><line x1="624.1" y1="623.48" x2="669.68" y2="597.17" fill="none" stroke="blue" stroke-linecap="round" stroke-miterlimit="10"/><line x1="627.61" y1="625.51" x2="673.19" y2="599.19" fill="none" stroke="blue" stroke-linecap="round" stroke-miterlimit="10"/><line x1="631.11" y1="627.53" x2="676.69" y2="601.21" fill="none" stroke="blue" stroke-linecap="round" stroke-miterlimit="10"/><line x1="634.62" y1="629.55" x2="680.2" y2="603.24" fill="none" stroke="blue" stroke-linecap="round" stroke-miterlimit="10"/><line x1="638.13" y1="631.58" x2="683.71" y2="605.26" fill="none" stroke="blue" stroke-linecap="round" stroke-miterlimit="10"/><line x1="638.13" y1="631.58" x2="683.71" y2="605.26" fill="none" stroke-linecap="round" stroke-miterlimit="10" stroke="url(#b07c6f0a-654f-41e9-91bd-44d41eef7d42)"/><line x1="638.13" y1="635.96" x2="683.71" y2="609.65" fill="none" stroke-linecap="round" stroke-miterlimit="10" stroke="url(#ad7e31e4-8610-4cb7-bc50-2e8a446dfb95)"/><line x1="638.13" y1="640.35" x2="683.71" y2="614.04" fill="none" stroke-linecap="round" stroke-miterlimit="10" stroke="url(#b569c65e-76be-4dc0-b83b-be5caf20b972)"/><line x1="638.13" y1="644.74" x2="683.71" y2="618.42" fill="none" stroke-linecap="round" stroke-miterlimit="10" stroke="url(#afe70572-d5e0-4f4f-8c6b-205440aeee58)"/><line x1="638.13" y1="649.12" x2="683.71" y2="622.81" fill="none" stroke-linecap="round" stroke-miterlimit="10" stroke="url(#bbe575d9-bb70-4fb5-a477-8ed619f9028d)"/><line x1="638.13" y1="653.51" x2="683.71" y2="627.19" fill="none" stroke-linecap="round" stroke-miterlimit="10" stroke="url(#a6ac6fad-d266-4e31-8b2c-c524c8c521fc)"/><line x1="638.13" y1="657.89" x2="683.71" y2="631.58" fill="none" stroke-linecap="round" stroke-miterlimit="10" stroke="url(#bf5b694d-e68a-4d0e-9020-95c8e4055ea5)"/><line x1="638.13" y1="662.28" x2="683.71" y2="635.97" fill="none" stroke-linecap="round" stroke-miterlimit="10" stroke="url(#e1763103-6948-4585-831a-32725913b2df)"/><line x1="638.13" y1="666.67" x2="683.71" y2="640.35" fill="none" stroke-linecap="round" stroke-miterlimit="10" stroke="url(#f818cd3b-1dda-4923-a287-baa05cc0e047)"/><line x1="638.13" y1="671.05" x2="683.71" y2="644.74" fill="none" stroke-linecap="round" stroke-miterlimit="10" stroke="url(#e0ba91ee-6914-4917-8f70-d363c705915e)"/><line x1="638.13" y1="675.44" x2="683.71" y2="649.12" fill="none" stroke-linecap="round" stroke-miterlimit="10" stroke="url(#a15621d1-6803-4aff-881b-8d37af8fe4c6)"/><line x1="638.13" y1="679.83" x2="683.71" y2="653.51" fill="none" stroke-linecap="round" stroke-miterlimit="10" stroke="url(#bb673834-d99e-482b-8a82-1d73bc781406)"/><line x1="638.13" y1="684.21" x2="683.71" y2="657.9" fill="none" stroke-linecap="round" stroke-miterlimit="10" stroke="url(#b7ca212f-0d8e-4a18-a63b-b51fbe0940b4)"/></svg>