<?xml version="1.0" encoding="utf-8"?>
<!-- Generator: Adobe Illustrator 23.0.1, SVG Export Plug-In . SVG Version: 6.00 Build 0)  -->
<svg version="1.1" id="Layer_1" xmlns="http://www.w3.org/2000/svg" xmlns:xlink="http://www.w3.org/1999/xlink" x="0px" y="0px"
	 viewBox="0 0 129.2 128.7" style="enable-background:new 0 0 129.2 128.7;" xml:space="preserve">
<g>
	<defs>
		
			<rect id="SVGID_5_" x="4.1" y="33.7" transform="matrix(0.7109 -0.7033 0.7033 0.7109 -26.5901 64.0238)" width="120.9" height="61.4"/>
	</defs>
	<clipPath id="SVGID_2_">
		<use xlink:href="#SVGID_5_"  style="overflow:visible;"/>
	</clipPath>
	<g style="clip-path:url(#SVGID_2_);">
		<line style="fill:none;stroke:#878787;stroke-miterlimit:10;" x1="-22.8" y1="2.3" x2="156.9" y2="-1.4"/>
		<line style="fill:none;stroke:#878787;stroke-miterlimit:10;" x1="-22.7" y1="5.8" x2="156.9" y2="2.1"/>
		<line style="fill:none;stroke:#878787;stroke-miterlimit:10;" x1="-22.7" y1="9.4" x2="157" y2="5.6"/>
		<line style="fill:none;stroke:#878787;stroke-miterlimit:10;" x1="-22.6" y1="12.9" x2="157.1" y2="9.2"/>
		<line style="fill:none;stroke:#878787;stroke-miterlimit:10;" x1="-22.5" y1="16.4" x2="157.2" y2="12.7"/>
		<line style="fill:none;stroke:#878787;stroke-miterlimit:10;" x1="-22.4" y1="20" x2="157.2" y2="16.2"/>
		<line style="fill:none;stroke:#878787;stroke-miterlimit:10;" x1="-22.4" y1="23.5" x2="157.3" y2="19.8"/>
		<line style="fill:none;stroke:#878787;stroke-miterlimit:10;" x1="-22.3" y1="27" x2="157.4" y2="23.3"/>
		<line style="fill:none;stroke:#878787;stroke-miterlimit:10;" x1="-22.2" y1="30.6" x2="157.5" y2="26.9"/>
		<line style="fill:none;stroke:#878787;stroke-miterlimit:10;" x1="-22.1" y1="34.1" x2="157.5" y2="30.4"/>
		<line style="fill:none;stroke:#878787;stroke-miterlimit:10;" x1="-22.1" y1="37.7" x2="157.6" y2="33.9"/>
		<line style="fill:none;stroke:#878787;stroke-miterlimit:10;" x1="-22" y1="41.2" x2="157.7" y2="37.5"/>
		<line style="fill:none;stroke:#878787;stroke-miterlimit:10;" x1="-21.9" y1="44.7" x2="157.7" y2="41"/>
		<line style="fill:none;stroke:#878787;stroke-miterlimit:10;" x1="-21.8" y1="48.3" x2="157.8" y2="44.5"/>
		<line style="fill:none;stroke:#878787;stroke-miterlimit:10;" x1="-21.8" y1="51.8" x2="157.9" y2="48.1"/>
		<line style="fill:none;stroke:#878787;stroke-miterlimit:10;" x1="-21.7" y1="55.3" x2="158" y2="51.6"/>
		<line style="fill:none;stroke:#878787;stroke-miterlimit:10;" x1="-21.6" y1="58.9" x2="158" y2="55.1"/>
		<line style="fill:none;stroke:#878787;stroke-miterlimit:10;" x1="-21.6" y1="62.4" x2="158.1" y2="58.7"/>
		<line style="fill:none;stroke:#878787;stroke-miterlimit:10;" x1="-21.5" y1="66" x2="158.2" y2="62.2"/>
		<line style="fill:none;stroke:#878787;stroke-miterlimit:10;" x1="-21.4" y1="69.5" x2="158.3" y2="65.8"/>
		<line style="fill:none;stroke:#878787;stroke-miterlimit:10;" x1="-21.3" y1="73" x2="158.3" y2="69.3"/>
		<line style="fill:none;stroke:#878787;stroke-miterlimit:10;" x1="-21.3" y1="76.6" x2="158.4" y2="72.8"/>
		<line style="fill:none;stroke:#878787;stroke-miterlimit:10;" x1="-21.2" y1="80.1" x2="158.5" y2="76.4"/>
		<line style="fill:none;stroke:#878787;stroke-miterlimit:10;" x1="-21.1" y1="83.6" x2="158.6" y2="79.9"/>
		<line style="fill:none;stroke:#878787;stroke-miterlimit:10;" x1="-21" y1="87.2" x2="158.6" y2="83.4"/>
		<line style="fill:none;stroke:#878787;stroke-miterlimit:10;" x1="-21" y1="90.7" x2="158.7" y2="87"/>
		<line style="fill:none;stroke:#878787;stroke-miterlimit:10;" x1="-20.9" y1="94.2" x2="158.8" y2="90.5"/>
		<line style="fill:none;stroke:#878787;stroke-miterlimit:10;" x1="-20.8" y1="97.8" x2="158.8" y2="94.1"/>
		<line style="fill:none;stroke:#878787;stroke-miterlimit:10;" x1="-20.7" y1="101.3" x2="158.9" y2="97.6"/>
		<line style="fill:none;stroke:#878787;stroke-miterlimit:10;" x1="-20.7" y1="104.9" x2="159" y2="101.1"/>
		<line style="fill:none;stroke:#878787;stroke-miterlimit:10;" x1="-20.6" y1="108.4" x2="159.1" y2="104.7"/>
		<line style="fill:none;stroke:#878787;stroke-miterlimit:10;" x1="-20.5" y1="111.9" x2="159.1" y2="108.2"/>
		<line style="fill:none;stroke:#878787;stroke-miterlimit:10;" x1="-20.4" y1="115.5" x2="159.2" y2="111.7"/>
		<line style="fill:none;stroke:#878787;stroke-miterlimit:10;" x1="-20.4" y1="119" x2="159.3" y2="115.3"/>
		<line style="fill:none;stroke:#878787;stroke-miterlimit:10;" x1="-20.3" y1="122.5" x2="159.4" y2="118.8"/>
		<line style="fill:none;stroke:#878787;stroke-miterlimit:10;" x1="-20.2" y1="126.1" x2="159.4" y2="122.3"/>
		<line style="fill:none;stroke:#878787;stroke-miterlimit:10;" x1="-20.2" y1="129.6" x2="159.5" y2="125.9"/>
	</g>
</g>
</svg>
