<svg id="a05f0bee-2dd9-4170-a8b9-245a34204168" data-name="Layer 1" xmlns="http://www.w3.org/2000/svg" xmlns:xlink="http://www.w3.org/1999/xlink" viewBox="0 0 129.17 128.71"><defs><clipPath id="a81d9f75-8b21-40b8-9841-ef3876b1fb01"><rect x="4.11" y="33.65" width="120.95" height="61.41" rx="3.8" transform="translate(-26.59 64.02) rotate(-44.69)" fill="none"/></clipPath></defs><title>logo-icon</title><g clip-path="url(#a81d9f75-8b21-40b8-9841-ef3876b1fb01)"><line x1="-22.8" y1="2.29" x2="156.86" y2="-1.44" fill="none" stroke="#fff" stroke-miterlimit="10"/><line x1="-22.73" y1="5.83" x2="156.94" y2="2.09" fill="none" stroke="#fff" stroke-miterlimit="10"/><line x1="-22.65" y1="9.36" x2="157.01" y2="5.63" fill="none" stroke="#fff" stroke-miterlimit="10"/><line x1="-22.58" y1="12.9" x2="157.09" y2="9.17" fill="none" stroke="#fff" stroke-miterlimit="10"/><line x1="-22.51" y1="16.44" x2="157.16" y2="12.7" fill="none" stroke="#fff" stroke-miterlimit="10"/><line x1="-22.43" y1="19.97" x2="157.23" y2="16.24" fill="none" stroke="#fff" stroke-miterlimit="10"/><line x1="-22.36" y1="23.51" x2="157.31" y2="19.78" fill="none" stroke="#fff" stroke-miterlimit="10"/><line x1="-22.29" y1="27.05" x2="157.38" y2="23.32" fill="none" stroke="#fff" stroke-miterlimit="10"/><line x1="-22.21" y1="30.58" x2="157.45" y2="26.85" fill="none" stroke="#fff" stroke-miterlimit="10"/><line x1="-22.14" y1="34.12" x2="157.53" y2="30.39" fill="none" stroke="#fff" stroke-miterlimit="10"/><line x1="-22.07" y1="37.66" x2="157.6" y2="33.93" fill="none" stroke="#fff" stroke-miterlimit="10"/><line x1="-21.99" y1="41.19" x2="157.67" y2="37.46" fill="none" stroke="#fff" stroke-miterlimit="10"/><line x1="-21.92" y1="44.73" x2="157.75" y2="41" fill="none" stroke="#fff" stroke-miterlimit="10"/><line x1="-21.85" y1="48.27" x2="157.82" y2="44.54" fill="none" stroke="#fff" stroke-miterlimit="10"/><line x1="-21.77" y1="51.81" x2="157.89" y2="48.07" fill="none" stroke="#fff" stroke-miterlimit="10"/><line x1="-21.7" y1="55.34" x2="157.97" y2="51.61" fill="none" stroke="#fff" stroke-miterlimit="10"/><line x1="-21.63" y1="58.88" x2="158.04" y2="55.15" fill="none" stroke="#fff" stroke-miterlimit="10"/><line x1="-21.55" y1="62.42" x2="158.11" y2="58.68" fill="none" stroke="#fff" stroke-miterlimit="10"/><line x1="-21.48" y1="65.95" x2="158.19" y2="62.22" fill="none" stroke="#fff" stroke-miterlimit="10"/><line x1="-21.4" y1="69.49" x2="158.26" y2="65.76" fill="none" stroke="#fff" stroke-miterlimit="10"/><line x1="-21.33" y1="73.03" x2="158.33" y2="69.29" fill="none" stroke="#fff" stroke-miterlimit="10"/><line x1="-21.26" y1="76.56" x2="158.41" y2="72.83" fill="none" stroke="#fff" stroke-miterlimit="10"/><line x1="-21.18" y1="80.1" x2="158.48" y2="76.37" fill="none" stroke="#fff" stroke-miterlimit="10"/><line x1="-21.11" y1="83.64" x2="158.55" y2="79.9" fill="none" stroke="#fff" stroke-miterlimit="10"/><line x1="-21.04" y1="87.17" x2="158.63" y2="83.44" fill="none" stroke="#fff" stroke-miterlimit="10"/><line x1="-20.96" y1="90.71" x2="158.7" y2="86.98" fill="none" stroke="#fff" stroke-miterlimit="10"/><line x1="-20.89" y1="94.25" x2="158.78" y2="90.52" fill="none" stroke="#fff" stroke-miterlimit="10"/><line x1="-20.82" y1="97.78" x2="158.85" y2="94.05" fill="none" stroke="#fff" stroke-miterlimit="10"/><line x1="-20.74" y1="101.32" x2="158.92" y2="97.59" fill="none" stroke="#fff" stroke-miterlimit="10"/><line x1="-20.67" y1="104.86" x2="159" y2="101.13" fill="none" stroke="#fff" stroke-miterlimit="10"/><line x1="-20.6" y1="108.39" x2="159.07" y2="104.66" fill="none" stroke="#fff" stroke-miterlimit="10"/><line x1="-20.52" y1="111.93" x2="159.14" y2="108.2" fill="none" stroke="#fff" stroke-miterlimit="10"/><line x1="-20.45" y1="115.47" x2="159.22" y2="111.74" fill="none" stroke="#fff" stroke-miterlimit="10"/><line x1="-20.38" y1="119.01" x2="159.29" y2="115.27" fill="none" stroke="#fff" stroke-miterlimit="10"/><line x1="-20.3" y1="122.54" x2="159.36" y2="118.81" fill="none" stroke="#fff" stroke-miterlimit="10"/><line x1="-20.23" y1="126.08" x2="159.44" y2="122.35" fill="none" stroke="#fff" stroke-miterlimit="10"/><line x1="-20.16" y1="129.62" x2="159.51" y2="125.88" fill="none" stroke="#fff" stroke-miterlimit="10"/></g></svg>