<svg xmlns="http://www.w3.org/2000/svg" xmlns:xlink="http://www.w3.org/1999/xlink" viewBox="0 0 100 105.25"><defs><linearGradient id="fd229662-3c7d-4f38-98ad-91595b23b729" x1="70.89" y1="27.73" x2="70.89" y2="93.86" gradientUnits="userSpaceOnUse"><stop offset="0" stop-color="#fff"/><stop offset="0.21" stop-color="#fafcfd"/><stop offset="0.45" stop-color="#edf3f8"/><stop offset="0.69" stop-color="#d7e5ee"/><stop offset="0.85" stop-color="#c5d9e7"/></linearGradient><linearGradient id="b5823498-a22f-4321-bc74-4dcadab7ae8a" x1="38.27" y1="79.14" x2="48.25" y2="79.14" gradientUnits="userSpaceOnUse"><stop offset="0" stop-color="#fff"/><stop offset="0.25" stop-color="#fafcfd"/><stop offset="0.53" stop-color="#edf3f8"/><stop offset="0.82" stop-color="#d7e5ee"/><stop offset="1" stop-color="#c5d9e7"/></linearGradient><linearGradient id="a016ea02-80b2-4f28-8e29-79f135772871" x1="62.5" y1="100.14" x2="62.5" y2="91.1" xlink:href="#fd229662-3c7d-4f38-98ad-91595b23b729"/><linearGradient id="fbf8b173-adbd-4f1a-a264-4cbd1ea9dc78" x1="70.89" y1="101.46" x2="70.89" y2="89.23" xlink:href="#fd229662-3c7d-4f38-98ad-91595b23b729"/><linearGradient id="ff7e76db-b213-4077-81c6-08e4e65f3569" x1="80.93" y1="98.91" x2="80.93" y2="90.51" gradientUnits="userSpaceOnUse"><stop offset="0" stop-color="#fff"/><stop offset="0.16" stop-color="#fafcfd"/><stop offset="0.35" stop-color="#edf3f8"/><stop offset="0.53" stop-color="#d7e5ee"/><stop offset="0.65" stop-color="#c5d9e7"/></linearGradient><linearGradient id="b102d426-8211-4104-b9e2-c63513cac876" x1="87.84" y1="96.3" x2="86.35" y2="92.37" xlink:href="#b5823498-a22f-4321-bc74-4dcadab7ae8a"/></defs><title>map-icons</title><g id="b194a30e-6098-4972-804e-42513a6ee564" data-name="Layer 1"><path d="M85.86,4.13,85,3.63a29.12,29.12,0,0,0-28.16,0l-.88.5a29.1,29.1,0,0,0-14.14,25c0,.32,0,.64,0,1,0,.6,0,1.19.11,1.78a39.85,39.85,0,0,0,.79,4.53v0C45.77,50,55.82,73.48,62.26,79.81h0c.19.21.38.42.59.62l0,.06a3.45,3.45,0,0,0,.28.26l0,0,.33.29h0l.35.28.29.22.16.11.3.21.36.23.17.1.17.1h0a11.43,11.43,0,0,0,11.07,0h0l.17-.1.18-.1.36-.23.43-.3.32-.24.34-.28c.14-.12.28-.24.41-.37l.21-.19.36-.38c.1-.11.2-.21.29-.32h0C86,73.47,96,50,99.07,36.44v0a39.63,39.63,0,0,0,.81-4.69s0,0,0,0c0-.52.08-1.05.09-1.59v0c0-.32,0-.64,0-1A29.1,29.1,0,0,0,85.86,4.13Zm-9.07,32-.18.1-.17.1a0,0,0,0,1,0,0,11.43,11.43,0,0,1-11.07,0h0l-.17-.1-.17-.1a11.37,11.37,0,0,1,0-19.45l.08-.05.26-.15a11.17,11.17,0,0,1,3.1-1.18,11.67,11.67,0,0,1,4.9,0,10.94,10.94,0,0,1,3.1,1.18l.26.15.09.05a11.38,11.38,0,0,1,0,19.45Z" fill="url(#fd229662-3c7d-4f38-98ad-91595b23b729)"/><path d="M3.05,77.91A25.09,25.09,0,0,0,5.76,74.7a14.83,14.83,0,0,0,1.13-1.77,7.36,7.36,0,0,0,.82.06c1.1,0,2,0,2.37-.09a19.65,19.65,0,0,0-2.14,1.95c-1,1.05-2.17,2.34-2.54,2.81a47.52,47.52,0,0,0,3.44,4.16c1.38,1.5,1.81,1.81,2.15,2a4.41,4.41,0,0,1-1.43.16c-1.66,0-2.4-.12-3.53-1.5s-2.23-2.9-3-4.06v1.3a35.8,35.8,0,0,0,.18,4.19,11.06,11.06,0,0,0-1.11,0,14.87,14.87,0,0,0-1.86.09c.09-.69.16-2.44.16-4.23V77.13A23.07,23.07,0,0,0,.2,72.94c.22,0,.78,0,1.23,0a12.42,12.42,0,0,0,1.77-.08c-.07.6-.15,2.17-.15,4.22Z" fill="#fff"/><path d="M14,82.11s-.05,0-.05,0a10.24,10.24,0,0,0-.58,1.72,9.25,9.25,0,0,0-1.13,0c-.7,0-1.22,0-1.44.06.36-.65.92-1.76,1.83-3.56l2.46-5.17c.31-.61.4-.74.52-.74s.21.12.5.74c.23.44,1.63,3.13,2.86,5.54a26.32,26.32,0,0,0,1.8,3.18l-1.27,0c-.72,0-1.55,0-1.87.06-.23-.56-.55-1.31-.78-1.73,0,0,0,0-.06,0Zm2.2-1.57s0,0,0-.06l-.88-2-.84,2s0,.06,0,.06Z" fill="#fff"/><path d="M22.12,78.13A25.15,25.15,0,0,0,22,74.59a8.5,8.5,0,0,0,1,0c.77,0,1.29-.06,2.26-.06,1.8,0,2.71.27,3.42.88a2.38,2.38,0,0,1,.83,1.85c0,2-1.8,3.07-3.81,3a12.1,12.1,0,0,0-.36-1.25C26.19,79,27,78.7,27,77.55a1.64,1.64,0,0,0-.35-1.13,1.74,1.74,0,0,0-1.48-.56,1.23,1.23,0,0,0-.44.06s-.08,0-.08.3v4.13a30.78,30.78,0,0,0,.17,3.51c-.26,0-.81,0-1.34,0s-1.3,0-1.53.06a34.1,34.1,0,0,0,.16-3.58Z" fill="#fff"/><path d="M30.32,74.44a9,9,0,0,0,2.33.18h4.44a12.42,12.42,0,0,0,2.28-.15,12.15,12.15,0,0,0-.23,2.17,3.12,3.12,0,0,0-1.45-.39c-.45,0-.91-.07-1.8-.07v4.11a35.25,35.25,0,0,0,.17,3.57,9.74,9.74,0,0,0-1.13,0c-.76,0-1.42,0-1.73.06a32.12,32.12,0,0,0,.15-3.58V76.18c-.49,0-.8,0-1.58,0a5.56,5.56,0,0,0-1.82.3A16.87,16.87,0,0,0,30.32,74.44Z" fill="#fff"/><path d="M41.47,82.11s0,0,0,0a10.24,10.24,0,0,0-.58,1.72,9.25,9.25,0,0,0-1.13,0c-.7,0-1.22,0-1.44.06.36-.65.92-1.76,1.83-3.56l2.46-5.17c.31-.61.4-.74.52-.74s.21.12.5.74c.23.44,1.63,3.13,2.86,5.54a24.85,24.85,0,0,0,1.81,3.18l-1.28,0c-.72,0-1.55,0-1.87.06-.23-.56-.55-1.31-.78-1.73,0,0,0,0-.06,0Zm2.2-1.57s0,0,0-.06l-.88-2-.84,2s0,.06,0,.06Z" fill="url(#b5823498-a22f-4321-bc74-4dcadab7ae8a)"/><path d="M2.74,96.06A18.82,18.82,0,0,0,5,93.38c.17-.26.84-1.25.94-1.5a5.9,5.9,0,0,0,.78.06c1,0,1.95-.06,2.25-.09a22,22,0,0,0-1.91,1.71A23.67,23.67,0,0,0,5,95.87a34.66,34.66,0,0,0,2.94,3.55,8.06,8.06,0,0,0,1.88,1.66,3.5,3.5,0,0,1-1.33.17c-1.6,0-2.28-.07-3.41-1.46a39.22,39.22,0,0,1-2.31-3.17v1a24.91,24.91,0,0,0,.18,3.57c-.18,0-.55,0-1.09,0s-1.48,0-1.77.07c.08-.61.14-2.08.14-3.6V95.45A18.88,18.88,0,0,0,0,91.9c.2,0,.75,0,1.17,0a14.07,14.07,0,0,0,1.72-.07c-.06.5-.15,1.85-.15,3.58Z" fill="#fff"/><path d="M10.71,95.45a18.75,18.75,0,0,0-.2-3.54c.2,0,.75,0,1.17,0a9.85,9.85,0,0,0,1.72-.09c-.06.51-.15,1.87-.15,3.6v2.16a24.91,24.91,0,0,0,.18,3.57c-.18,0-.65,0-1.22,0s-1.43,0-1.64,0a35.59,35.59,0,0,0,.14-3.58Z" fill="#fff"/><path d="M16.33,95.45a18.81,18.81,0,0,0-.22-3.55c.2,0,.74,0,1.21,0,.78,0,1.43,0,1.68-.07a31.38,31.38,0,0,0-.12,3.26v.1c0,.07,0,.09.05.09h3.66s.06,0,.06-.09v-.1a26.41,26.41,0,0,0-.16-3.23,11.85,11.85,0,0,0,1.26,0,11.49,11.49,0,0,0,1.6-.07,32.36,32.36,0,0,0-.16,3.58v2.16a35.29,35.29,0,0,0,.16,3.57c-.19,0-.78,0-1.26,0s-1.53,0-1.6,0c.07-.59.16-2.06.16-3.58v-.47s0-.06,0-.06H18.94a.06.06,0,0,0-.06.06v.47c0,1.32.07,2.89.15,3.57-.16,0-.58,0-1.11,0-.84,0-1.52,0-1.74,0,.07-.59.15-2.06.15-3.58Z" fill="#fff"/><path d="M27.43,96.58c0-2.29,1.6-4.86,5.4-4.86,3.35,0,5.19,2.17,5.19,4.58,0,2.8-1.84,5-5.34,5C28.92,101.34,27.43,98.74,27.43,96.58Zm7.72.26c0-1.49-.56-3.67-2.73-3.67-1.05,0-2.13.66-2.13,2.89,0,1.74.7,3.82,2.74,3.82C33.82,99.88,35.15,99.52,35.15,96.84Z" fill="#fff"/><path d="M39.21,91.77a9.2,9.2,0,0,0,2.34.17H46a13.73,13.73,0,0,0,2.28-.14A12.92,12.92,0,0,0,48,94a3.24,3.24,0,0,0-1.45-.39c-.44,0-.9-.07-1.8-.07v4.11c0,1.32.09,2.88.17,3.57a10.23,10.23,0,0,0-1.12,0c-.77,0-1.43,0-1.74,0a32.12,32.12,0,0,0,.15-3.58V93.5c-.49,0-.79,0-1.57,0a5.14,5.14,0,0,0-1.82.31A17.62,17.62,0,0,0,39.21,91.77Z" fill="#fff"/><path d="M50.05,95.45a15,15,0,0,0-.22-3.55c.35,0,.94,0,1.49,0h3.23A6.36,6.36,0,0,0,56,91.85a14.21,14.21,0,0,0-.15,2.05,3.64,3.64,0,0,0-1.5-.33c-.46,0-1.36-.07-1.7-.07a.06.06,0,0,0,0,.06v1.87s0,.06,0,.06c.39,0,1.31,0,1.83,0a4.69,4.69,0,0,0,1.3-.13,12.51,12.51,0,0,0-.14,2.06,2.3,2.3,0,0,0-1.2-.3c-.39,0-1.37,0-1.79,0,0,0,0,0,0,0v.27c0,1.74,0,2,.09,2.08s.16.07.3.09a11,11,0,0,0,1.23.06,5.89,5.89,0,0,0,2.27-.35,10.22,10.22,0,0,0-.39,1.92,4,4,0,0,1-.84,0c-1.65,0-2.7-.08-3.77-.08-.78,0-1.35,0-1.6,0a31.14,31.14,0,0,0,.16-3.57Z" fill="#fff"/><path d="M60.72,99.43s-.06,0-.06,0a11.61,11.61,0,0,0-.58,1.72,9.77,9.77,0,0,0-1.12,0c-.71,0-1.23,0-1.45,0,.36-.64.93-1.76,1.84-3.56l2.45-5.17c.32-.61.4-.74.52-.74s.22.12.5.74c.24.45,1.64,3.13,2.86,5.54a27.55,27.55,0,0,0,1.81,3.18c-.57,0-1.08,0-1.27,0-.72,0-1.56,0-1.88,0-.23-.56-.55-1.31-.78-1.73,0,0,0,0-.06,0Zm2.19-1.57s0,0,0-.06l-.88-2-.84,2s0,.06,0,.06Z" fill="url(#a016ea02-80b2-4f28-8e29-79f135772871)"/><path d="M66.55,91.77a9.25,9.25,0,0,0,2.34.17h4.43a13.64,13.64,0,0,0,2.28-.14A12.92,12.92,0,0,0,75.37,94a3.19,3.19,0,0,0-1.44-.39c-.45,0-.91-.07-1.81-.07v4.11c0,1.32.09,2.88.17,3.57a10.23,10.23,0,0,0-1.12,0c-.77,0-1.43,0-1.73,0a35.59,35.59,0,0,0,.14-3.58V93.5c-.49,0-.79,0-1.57,0a5.14,5.14,0,0,0-1.82.31A17.62,17.62,0,0,0,66.55,91.77Z" fill="url(#fbf8b173-adbd-4f1a-a264-4cbd1ea9dc78)"/><path d="M77.33,95.45a25.15,25.15,0,0,0-.16-3.54,8.6,8.6,0,0,0,1,0c.77,0,1.28-.06,2.25-.06,1.81,0,2.72.28,3.42.88a2.36,2.36,0,0,1,.84,1.85c0,2-1.8,3.08-3.81,3-.06-.26-.25-1-.36-1.26.89-.08,1.72-.37,1.72-1.53a1.66,1.66,0,0,0-.35-1.12,1.72,1.72,0,0,0-1.49-.57,1.44,1.44,0,0,0-.43.06c-.06,0-.09,0-.09.3v4.13a30.36,30.36,0,0,0,.18,3.51c-.26,0-.81,0-1.35,0s-1.3,0-1.53,0a31.51,31.51,0,0,0,.16-3.58Z" fill="url(#ff7e76db-b213-4077-81c6-08e4e65f3569)"/><path d="M86.66,95.45a18.75,18.75,0,0,0-.2-3.54c.2,0,.75,0,1.17,0a9.62,9.62,0,0,0,1.71-.09c0,.51-.14,1.87-.14,3.6v2.16a26.94,26.94,0,0,0,.17,3.57c-.17,0-.65,0-1.21,0s-1.43,0-1.65,0a32.12,32.12,0,0,0,.15-3.58Z" fill="url(#b102d426-8211-4104-b9e2-c63513cac876)"/><path d="M92.25,95.45a22.44,22.44,0,0,0-.19-3.55c.2,0,.66,0,1,0,1,0,1.69,0,2.73,0,2.73,0,3.29,1.18,3.29,2.12a2.05,2.05,0,0,1-1.31,1.85c1.48.45,2.16,1.28,2.16,2.42,0,1.65-1.46,2.93-4,2.93-1,0-2.15-.08-2.34-.08-.49,0-1.21,0-1.5,0a32.12,32.12,0,0,0,.15-3.58Zm2.48,0s0,.08.07.09c.23,0,.81,0,.9,0a1.28,1.28,0,0,0,.77-.14,1.09,1.09,0,0,0,.38-.88c0-.68-.46-1.24-1.49-1.24a1.83,1.83,0,0,0-.59.06s0,0,0,.07ZM97,97.56A2.27,2.27,0,0,0,95.38,97a5.59,5.59,0,0,0-.59,0c-.05,0-.06,0-.06.07v.54c0,.44,0,1.81.07,1.87s.35.29,1.2.29a1.24,1.24,0,0,0,1.3-1.25A1.33,1.33,0,0,0,97,97.56Z" fill="#fff"/></g></svg>