<svg xmlns="http://www.w3.org/2000/svg" xmlns:xlink="http://www.w3.org/1999/xlink" viewBox="0 0 100 105.25">
  <defs>
    <linearGradient id="a892cf73-01d7-4d54-96a0-dae52accfb34" x1="64.96" y1="76.69" x2="57.01" y2="62.92"
                    gradientUnits="userSpaceOnUse">
      <stop offset="0" stop-color="#fff"/>
      <stop offset="0.21" stop-color="#fafcfd"/>
      <stop offset="0.45" stop-color="#edf3f8"/>
      <stop offset="0.69" stop-color="#d7e5ee"/>
      <stop offset="0.85" stop-color="#c5d9e7"/>
    </linearGradient>
    <linearGradient id="eac108dd-41c0-4201-a870-6d6ba5a211dd" x1="75.34" y1="74.36" x2="70.18" y2="65.42"
                    xlink:href="#a892cf73-01d7-4d54-96a0-dae52accfb34"/>
    <linearGradient id="f4edb954-43c0-4cfa-932b-776fc8366f40" x1="42.25" y1="93.68" x2="42.25" y2="80.93"
                    gradientUnits="userSpaceOnUse">
      <stop offset="0" stop-color="#fff"/>
      <stop offset="0.25" stop-color="#fafcfd"/>
      <stop offset="0.53" stop-color="#edf3f8"/>
      <stop offset="0.82" stop-color="#d7e5ee"/>
      <stop offset="1" stop-color="#c5d9e7"/>
    </linearGradient>
    <linearGradient id="fb8f3c32-96bb-4774-bf4d-7793e0ab870f" x1="55.37" y1="92.66" x2="50.2" y2="83.71"
                    xlink:href="#f4edb954-43c0-4cfa-932b-776fc8366f40"/>
    <linearGradient id="a4b1192e-e5f0-496d-b523-aa2c34e36448" x1="50.49" y1="15.14" x2="46.48" y2="62.42"
                    xlink:href="#a892cf73-01d7-4d54-96a0-dae52accfb34"/>
  </defs>
  <g id="f4213a4b-1577-4cf4-805d-a4d4d1164145">
    <path
      d="M55.61,68.43a26.74,26.74,0,0,0-.23-4.57c.23,0,1.16,0,1.65,0H64.7a13.77,13.77,0,0,0,1.84-.08,45.34,45.34,0,0,0-.19,4.6V71.2a37.14,37.14,0,0,0,.22,4.56c-.27,0-.72,0-1.45,0a15.61,15.61,0,0,0-1.81.07c.1-.75.17-2.64.17-4.59V68.62c0-.62,0-2.3,0-2.73,0-.12,0-.14-.11-.14H58.59c-.06,0-.1,0-.1.11s0,1.8,0,2.39v3a35.47,35.47,0,0,0,.2,4.56c-.2,0-.86,0-1.43,0a15.71,15.71,0,0,0-1.81.07c.09-.75.17-2.64.17-4.59Z"
      fill="url(#a892cf73-01d7-4d54-96a0-dae52accfb34)"/>
    <path
      d="M70,69.51a27.35,27.35,0,0,0-.17-3.85,10.24,10.24,0,0,0,1.09,0c.83,0,1.4-.06,2.45-.06,2,0,3,.29,3.73,1a2.53,2.53,0,0,1,.92,2c0,2.19-2,3.35-4.16,3.32-.06-.28-.27-1-.39-1.37,1-.09,1.87-.41,1.87-1.67a1.79,1.79,0,0,0-.38-1.22A1.88,1.88,0,0,0,73.29,67a1.73,1.73,0,0,0-.47.06c-.06,0-.09,0-.09.34v4.5a33.4,33.4,0,0,0,.18,3.82c-.28,0-.88,0-1.46,0s-1.42,0-1.67.06A34.35,34.35,0,0,0,70,71.87Z"
      fill="url(#eac108dd-41c0-4201-a870-6d6ba5a211dd)"/>
    <path
      d="M79.54,70.74c0-2.49,1.75-5.29,5.89-5.29,3.65,0,5.67,2.36,5.67,5,0,3.06-2,5.5-5.83,5.5C81.16,75.94,79.54,73.1,79.54,70.74ZM88,71c0-1.62-.61-4-3-4-1.15,0-2.33.72-2.33,3.14,0,1.91.77,4.18,3,4.18C86.52,74.35,88,74,88,71Z"
      fill="#fff"/>
    <path
      d="M40.86,92s0-.06,0-.06c-3.71-.38-5.21-2.17-5.21-4.79C35.6,85,37,83,40.88,82.67c0,0,0,0,0-.06A8.53,8.53,0,0,0,40.8,81c.17,0,.68,0,1.32,0a13.74,13.74,0,0,0,1.65-.07,16.22,16.22,0,0,0-.14,1.7s0,0,0,0c3.68.3,5.21,2,5.21,4.42,0,2.88-2,4.57-5.21,4.83,0,0-.06,0-.06.07a14,14,0,0,0,.12,1.67l-1.29-.05a14.44,14.44,0,0,0-1.68.08C40.81,93.2,40.85,92.81,40.86,92Zm.06-7.68s0,0,0,0a2.35,2.35,0,0,0-2.27,2.66c0,1.91.79,3,2.24,3.31,0,0,.07,0,.07-.06ZM43.6,90.2s0,.08.06.06c1.56-.24,2.22-1.35,2.22-2.91,0-1.81-.85-2.8-2.23-3a0,0,0,0,0,0,0Z"
      fill="url(#f4edb954-43c0-4cfa-932b-776fc8366f40)"/>
    <path
      d="M51.39,87a19.83,19.83,0,0,0-.22-3.86,11.3,11.3,0,0,0,1.28,0,11,11,0,0,0,1.87-.1c-.06.55-.16,2-.16,3.92v2.36a29,29,0,0,0,.19,3.89c-.19,0-.7,0-1.32,0s-1.56,0-1.79.07a38.36,38.36,0,0,0,.15-3.91Z"
      fill="url(#fb8f3c32-96bb-4774-bf4d-7793e0ab870f)"/>
    <path
      d="M60.81,87.69,59.39,91a19.78,19.78,0,0,0-.79,2.22,10.25,10.25,0,0,0-1.21,0c-.77,0-1.34,0-1.57.07.39-.71,1-1.92,2-3.89l2.81-5.64c.33-.66.42-.8.56-.8s.22.13.55.8c.24.49,1.72,3.43,3,6.05a21.67,21.67,0,0,0,2,3.46l-1.39,0c-.79,0-1.7,0-2.05.07-.19-.51-.56-1.42-.77-1.89Z"
      fill="#fff"/>
    <path
      d="M68.24,87A19.69,19.69,0,0,0,68,83.14a11.2,11.2,0,0,0,1.27,0,11.9,11.9,0,0,0,1.83-.1c-.06.55-.17,2-.17,3.92,0,.06,0,.08.07.08h.73a7.66,7.66,0,0,1,3.32.58,2.69,2.69,0,0,1,1.61,2.52c0,1.73-1.64,3.12-4.63,3.12-1.62,0-2.19-.1-2.8-.1s-1,0-1.17,0a30.82,30.82,0,0,0,.16-3.89ZM71,89.33c0,1.75,0,2,.12,2.1a2.18,2.18,0,0,0,1.21.26,1.34,1.34,0,0,0,1.47-1.37,1.46,1.46,0,0,0-.52-1.21,2.78,2.78,0,0,0-1.87-.47H71c-.06,0-.06,0-.06.08Z"
      fill="#fff"/>
    <path
      d="M79.78,85.25c.11-.7.2-1.29.33-2,0-.22.08-.3.16-.3s.14.09.25.24c.44.59.85,1.13,1.4,1.9l2.9,4,2.09-3c1.26-1.69,1.56-2.1,1.89-2.58s.41-.57.52-.57.12.06.17.43c.11.72.21,1.46.3,2.15.44,3,1,6.72,1.31,7.73a10,10,0,0,0-1.33,0,16.64,16.64,0,0,0-1.81.07c0-1.2-.28-3.73-.41-4.82-1.13,1.68-2.44,3.79-3,4.93a.14.14,0,0,1-.22,0c-.54-1.09-2.28-3.73-2.91-4.8-.16,1.92-.25,3.4-.27,4.67a8.78,8.78,0,0,0-1.13,0,15.29,15.29,0,0,0-1.58.07C78.64,92.15,79.34,88.14,79.78,85.25Z"
      fill="#fff"/>
    <path
      d="M79.11,32.11a9.72,9.72,0,0,1-4.67,8.3,2,2,0,0,0-.25.14L69.4,43.31l-9.7,5.6L55,51.61l-.41.23L50,54.51l-9.7,5.6-4.66,2.7-.14.08-.14.07,0,0a9.66,9.66,0,0,1-9.47,0l-.3-.17h0a9.72,9.72,0,0,1-4.66-8.3V9.7a9.72,9.72,0,0,1,4.66-8.29h0l.3-.17a9.73,9.73,0,0,1,9.47,0l0,0,.18.09.11.07L40.3,4.1,50,9.7l4.62,2.67.15.08.26.16h0L59.7,15.3l9.7,5.6,4.71,2.73.33.18a0,0,0,0,0,0,0A9.72,9.72,0,0,1,79.11,32.11Z"
      fill="url(#a4b1192e-e5f0-496d-b523-aa2c34e36448)"/>
  </g>
</svg>
