<svg id="fcbac79a-12ad-4a3e-9560-80bd59ca0ecc" data-name="Layer 1" xmlns="http://www.w3.org/2000/svg" xmlns:xlink="http://www.w3.org/1999/xlink" viewBox="0 0 24 26.48"><defs><clipPath id="eaae5ba4-a159-4c88-9cb2-95c01c4a06f1"><path d="M24,13.24a4,4,0,0,1-1.93,3.42l-.1.06-2,1.14-4,2.31-1.93,1.11-.16.09L12,22.48l-4,2.3L6.08,25.89l-.06,0L6,26H6a4,4,0,0,1-3.9,0l-.12-.07h0A4,4,0,0,1,0,22.48V4A4,4,0,0,1,1.92.58h0L2.05.51A4,4,0,0,1,6,.51H6L6,.55l0,0L8,1.69,12,4l1.91,1.1.06,0,.1.07h0L16,6.31l4,2.31,1.94,1.12.13.08h0A4,4,0,0,1,24,13.24Z" fill="none"/></clipPath></defs><title>play-icon</title><g clip-path="url(#eaae5ba4-a159-4c88-9cb2-95c01c4a06f1)"><path d="M23.42,13.24a3.78,3.78,0,0,1-1.83,3.25l-.1.06-1.87,1.08-3.81,2.2L14,20.89l-.15.09L12,22l-3.81,2.2L6.36,25.29l-.05,0-.06,0h0a3.82,3.82,0,0,1-3.71,0l-.12-.07h0A3.82,3.82,0,0,1,.58,22V4.44A3.82,3.82,0,0,1,2.4,1.19h0l.12-.07a3.82,3.82,0,0,1,3.71,0h0l.07,0,0,0L8.19,2.25,12,4.44l1.82,1,0,0,.1.06h0l1.83,1,3.81,2.2,1.85,1.07.12.07h0A3.79,3.79,0,0,1,23.42,13.24Z" fill="#fff"/><path d="M6.33,10l-.1-.06h0Z"/><path d="M24.27,13.24a4.1,4.1,0,0,1-2,3.5l-.1.06-2,1.16-4.09,2.36-2,1.14-.17.1L12,22.68,7.91,25,6,26.18l-.06,0-.06,0h0a4.11,4.11,0,0,1-4,0l-.12-.07h0a4.11,4.11,0,0,1-2-3.5V3.79A4.1,4.1,0,0,1,1.69.3h0L1.82.22a4.11,4.11,0,0,1,4,0h0l.08,0,0,0,2,1.13L12,3.79,14,4.92,14,5l.11.07h0l2,1.13,4.09,2.37,2,1.14.13.08h0A4.08,4.08,0,0,1,24.27,13.24Z" fill="#fff"/><path d="M23.42,13.24a3.78,3.78,0,0,1-1.83,3.25l-.1.06a3.77,3.77,0,0,1-3.75,0l-.1-.06-1.83-1L14,14.38l-.08-.05-.08,0h0l-1.81-1-1.82-1.05L10,12.1,8.19,11,6.37,10h0l-.09-.06h0l0,0L4.38,8.84l-1.81-1L2.41,7.7A3.79,3.79,0,0,1,1.09,6.35,3.74,3.74,0,0,1,.58,4.44,3.82,3.82,0,0,1,2.4,1.19h0l.12-.07a3.82,3.82,0,0,1,3.71,0h0l.07,0,0,0L8.19,2.25,12,4.44l1.82,1,0,0,.1.06h0l1.83,1,3.81,2.2,1.85,1.07h0l.12.07h0A3.79,3.79,0,0,1,23.42,13.24Z" fill="blue"/><circle cx="4.38" cy="22.15" r="3.81" fill="#0000bf"/></g></svg>