<?xml version="1.0" encoding="utf-8"?>
<!-- Generator: Adobe Illustrator 23.0.1, SVG Export Plug-In . SVG Version: 6.00 Build 0)  -->
<svg version="1.1" id="ic-search-24px" xmlns="http://www.w3.org/2000/svg" xmlns:xlink="http://www.w3.org/1999/xlink" x="0px"
	 y="0px" viewBox="0 0 19.7 19.7" style="enable-background:new 0 0 19.7 19.7;" xml:space="preserve">
<style type="text/css">
	.st0{fill:none;}
</style>
<path id="Path_62" d="M14.1,12.4h-0.9l-0.3-0.3c2.6-3.1,2.3-7.7-0.8-10.3S4.4-0.5,1.8,2.6s-2.3,7.7,0.8,10.3c2.7,2.4,6.8,2.4,9.5,0
	l0.3,0.3v0.9l5.6,5.6l1.7-1.7L14.1,12.4z M7.3,12.4c-2.8,0-5.1-2.3-5.1-5.1s2.3-5.1,5.1-5.1s5.1,2.3,5.1,5.1l0,0
	C12.4,10.1,10.1,12.4,7.3,12.4C7.3,12.4,7.3,12.4,7.3,12.4z"/>
<path id="Path_63" class="st0" d="M-3.4-3.4h27v27h-27V-3.4z"/>
</svg>
